<svg id="Layer_1" data-name="Layer 1" xmlns="http://www.w3.org/2000/svg" viewBox="0 0 24 24"><defs><style>.cls-1{fill:#ee9100;}.cls-2{fill:none;}</style></defs><title>baseline-face-24px</title><path class="cls-1" d="M9,11.8a1.3,1.3,0,1,0,1.3,1.3A1.32,1.32,0,0,0,9,11.8Zm6,0a1.3,1.3,0,1,0,1.3,1.3A1.32,1.32,0,0,0,15,11.8ZM12,2A10,10,0,1,0,22,12,10,10,0,0,0,12,2Zm0,18a8,8,0,0,1-8-8,2.77,2.77,0,0,1,.1-.9A10.17,10.17,0,0,0,9.3,5.7a9.86,9.86,0,0,0,8.2,4.2,9.08,9.08,0,0,0,2.3-.3,8.52,8.52,0,0,1,.3,2.3A8.2,8.2,0,0,1,12,20Z"/><path class="cls-2" d="M0,0H24V24H0Z"/></svg>