<svg id="Layer_1" data-name="Layer 1" xmlns="http://www.w3.org/2000/svg" viewBox="0 0 24 24"><defs><style>.cls-1{fill:none;}.cls-2{fill:#ee9100;}</style></defs><title>baseline-dialpad-24px</title><path class="cls-1" d="M0,0H24V24H0Z"/><path class="cls-2" d="M12,19a2,2,0,1,0,2,2A2,2,0,0,0,12,19ZM6,1A2,2,0,1,0,8,3,2,2,0,0,0,6,1ZM6,7A2,2,0,1,0,8,9,2,2,0,0,0,6,7Zm0,6a2,2,0,1,0,2,2A2,2,0,0,0,6,13ZM18,5a2,2,0,1,0-2-2A2,2,0,0,0,18,5Zm-6,8a2,2,0,1,0,2,2A2,2,0,0,0,12,13Zm6,0a2,2,0,1,0,2,2A2,2,0,0,0,18,13Zm0-6a2,2,0,1,0,2,2A2,2,0,0,0,18,7ZM12,7a2,2,0,1,0,2,2A2,2,0,0,0,12,7Zm0-6a2,2,0,1,0,2,2A2,2,0,0,0,12,1Z"/></svg>