<svg id="Layer_1" data-name="Layer 1" xmlns="http://www.w3.org/2000/svg" viewBox="0 0 24 24"><defs><style>.cls-1{fill:none;}.cls-2{fill:#ee9100;}</style></defs><title>baseline-track_changes-24px</title><path class="cls-1" d="M0,0H24V24H0Z"/><path class="cls-2" d="M19.1,4.9,17.7,6.3A8.36,8.36,0,0,1,20,12a8,8,0,1,1-9-7.9v2A6,6,0,1,0,18,12a5.64,5.64,0,0,0-1.8-4.2L14.8,9.2A3.63,3.63,0,0,1,16,12a4,4,0,0,1-8,0,4.08,4.08,0,0,1,3-3.9v2.1a2.06,2.06,0,0,0-1,1.7,2,2,0,0,0,4,0,1.94,1.94,0,0,0-1-1.7V2H12a9.9,9.9,0,1,0,7.1,2.9Z"/></svg>