<svg id="Layer_1" data-name="Layer 1" xmlns="http://www.w3.org/2000/svg" xmlns:xlink="http://www.w3.org/1999/xlink" viewBox="0 0 24 24"><defs><style>.cls-1{fill:none;}.cls-2{clip-path:url(#clip-path);}.cls-3{fill:#ee9100;}</style><clipPath id="clip-path"><rect class="cls-1" width="24" height="24"/></clipPath></defs><title>baseline-touch_app-24px</title><g class="cls-2"><path class="cls-3" d="M9,11.2V7.5a2.5,2.5,0,0,1,5,0v3.7A4.49,4.49,0,1,0,7,7.5,4.37,4.37,0,0,0,9,11.2Zm9.8,4.7-4.5-2.3a1.09,1.09,0,0,0-.5-.1H13v-6a1.5,1.5,0,0,0-3,0V18.2l-3.4-.7H6.4a1.14,1.14,0,0,0-.8.3l-.8.8,4.9,4.9a1.37,1.37,0,0,0,1.1.4h6.8A1.34,1.34,0,0,0,19,22.6l.8-5.3v-.2A1.36,1.36,0,0,0,18.8,15.9Z"/></g></svg>